<?xml version="1.0" encoding="UTF-8" standalone="no"?><!-- Generator: Gravit.io --><svg xmlns="http://www.w3.org/2000/svg" xmlns:xlink="http://www.w3.org/1999/xlink" style="isolation:isolate" viewBox="0 0 650 650" width="650pt" height="650pt"><path d=" M 298.828 383.918 C 299.767 384.152 300.826 384.152 302.236 384.152 C 308.466 384.152 313.64 380.389 313.64 372.28 C 313.64 364.402 308.231 360.289 302.119 360.171 L 298.828 360.171 L 298.828 383.918 Z  M 298.828 348.77 L 302.119 348.77 C 307.644 348.77 311.875 344.066 311.875 337.602 C 311.875 331.841 309.172 327.375 302.825 327.375 C 301.179 327.375 299.767 327.492 298.828 327.845 L 298.828 348.77 Z  M 283.428 317.384 C 288.13 316.326 294.243 315.855 300.943 315.855 C 308.349 315.855 315.519 316.794 321.044 321.497 C 325.277 325.023 327.039 330.314 327.039 335.837 C 327.039 342.892 323.395 349.71 315.519 353.117 L 315.519 353.589 C 324.688 356.174 329.625 363.815 329.625 372.514 C 329.625 379.096 327.51 384.152 323.749 388.031 C 319.046 393.203 311.052 396.023 297.77 396.023 C 291.892 396.023 286.955 395.671 283.428 395.201 L 283.428 317.384 Z " fill="rgb(0,69,123)"/><path d=" M 363.601 322.086 C 363.601 317.736 366.893 314.563 370.772 314.563 C 374.651 314.563 377.706 317.618 377.706 322.086 C 377.706 326.435 374.768 329.609 370.772 329.609 C 366.775 329.609 363.601 326.435 363.601 322.086 Z  M 342.794 322.086 C 342.794 317.736 345.969 314.563 349.848 314.563 C 353.844 314.563 356.901 317.618 356.901 322.086 C 356.901 326.435 353.961 329.609 349.848 329.609 C 345.969 329.609 342.794 326.435 342.794 322.086 Z  M 380.881 377.921 C 380.881 384.034 381.116 390.029 381.351 395.436 L 368.068 395.436 L 367.245 389.324 L 367.01 389.324 C 364.307 393.203 359.604 396.378 353.726 396.378 C 342.794 396.378 338.328 388.266 338.328 372.749 L 338.328 337.954 L 353.844 337.954 L 353.844 371.104 C 353.844 378.627 355.254 383.445 359.604 383.445 C 362.19 383.445 363.836 381.448 364.542 379.566 C 365.129 378.391 365.482 376.628 365.482 374.629 L 365.482 337.954 L 380.881 337.954 L 380.881 377.921 Z " fill="rgb(0,69,123)"/><path d=" M 391.817 355.234 C 391.817 349.474 391.582 343.243 391.347 337.954 L 404.748 337.954 L 405.57 346.3 L 405.922 346.3 C 408.51 340.188 413.093 337.013 417.326 337.013 C 418.854 337.013 419.676 337.013 420.616 337.25 L 420.616 352.531 C 419.676 352.296 418.619 352.296 417.326 352.296 C 414.034 352.296 409.684 354.528 407.921 360.524 C 407.569 361.817 407.334 363.816 407.334 366.284 L 407.334 395.436 L 391.817 395.436 L 391.817 355.234 Z " fill="rgb(0,69,123)"/><path d=" M 452.594 358.878 C 452.594 357.35 452.359 355.821 452.006 354.646 C 451.301 352.178 449.655 349.944 447.068 349.944 C 441.544 349.944 439.31 357.468 439.31 366.871 C 439.31 377.568 442.366 382.976 446.716 382.976 C 448.714 382.976 450.713 381.917 451.889 378.861 C 452.359 377.568 452.594 375.805 452.594 374.277 L 452.594 358.878 Z  M 468.464 337.954 C 468.229 343.126 467.875 349.239 467.875 356.175 L 467.875 388.971 C 467.875 401.315 465.643 408.131 460.941 412.598 C 456.708 416.596 450.713 418.947 442.249 418.947 C 436.959 418.947 432.022 418.005 427.908 416.242 L 430.729 404.371 C 433.667 405.664 437.311 406.838 441.779 406.838 C 449.537 406.838 452.594 401.666 452.594 392.85 L 452.594 389.324 L 452.359 389.324 C 450.36 392.968 446.364 395.085 442.014 395.085 C 429.084 395.085 424.029 380.978 424.029 367.225 C 424.029 348.063 432.728 337.013 443.424 337.013 C 448.009 337.013 451.771 339.364 454.006 343.714 L 454.24 343.714 L 455.061 337.954 L 468.464 337.954 Z " fill="rgb(0,69,123)"/><path d=" M 505.143 361.347 C 505.143 353.941 503.262 348.181 498.678 348.181 C 493.622 348.181 491.624 355.587 491.509 361.347 L 505.143 361.347 Z  M 491.39 372.16 C 491.624 381.097 496.796 384.388 503.615 384.388 C 507.964 384.388 511.843 383.445 514.548 382.506 L 516.664 393.555 C 512.666 395.085 506.671 396.143 500.794 396.143 C 485.16 396.143 476.578 385.797 476.578 367.812 C 476.578 348.534 486.571 337.014 499.617 337.014 C 511.962 337.014 519.131 346.77 519.131 364.168 C 519.131 368.282 519.015 370.515 518.662 372.16 L 491.39 372.16 Z " fill="rgb(0,69,123)"/><path d=" M 527.715 355.234 C 527.715 349.474 527.48 343.243 527.245 337.954 L 540.648 337.954 L 541.468 346.3 L 541.822 346.3 C 544.408 340.188 548.991 337.013 553.224 337.013 C 554.752 337.013 555.575 337.013 556.514 337.25 L 556.514 352.531 C 555.575 352.296 554.517 352.296 553.224 352.296 C 549.934 352.296 545.582 354.528 543.819 360.524 C 543.468 361.817 543.234 363.816 543.234 366.284 L 543.234 395.436 L 527.715 395.436 L 527.715 355.234 Z " fill="rgb(0,69,123)"/><path d=" M 281.665 498.471 C 284.84 500.234 290.247 501.527 294.712 501.527 C 302.001 501.527 305.527 497.767 305.527 492.594 C 305.527 486.834 302.001 484.013 295.301 479.662 C 284.486 473.081 280.372 464.734 280.372 457.565 C 280.372 444.869 288.836 434.288 305.41 434.288 C 310.582 434.288 315.519 435.7 317.871 437.109 L 315.402 450.392 C 313.168 448.984 309.759 447.691 305.292 447.691 C 298.71 447.691 295.536 451.685 295.536 455.918 C 295.536 460.62 297.887 463.088 306.468 468.26 C 316.93 474.609 320.809 482.601 320.809 490.948 C 320.809 505.406 310.112 514.929 294.595 514.929 C 288.248 514.929 282.018 513.283 279.432 511.754 L 281.665 498.471 Z " fill="rgb(0,69,123)"/><path d=" M 347.144 441.225 L 347.144 456.741 L 358.429 456.741 L 358.429 467.674 L 347.144 467.674 L 347.144 493.887 C 347.144 500.587 349.965 502.23 353.02 502.23 C 354.55 502.23 355.725 502.115 357.018 501.88 L 357.136 513.871 C 355.019 514.456 351.845 514.929 347.731 514.929 C 343.265 514.929 339.386 513.871 336.681 511.284 C 333.508 508.226 331.744 503.878 331.744 494.826 L 331.744 467.674 L 324.927 467.674 L 324.927 456.741 L 331.744 456.741 L 331.744 444.869 L 347.144 441.225 Z " fill="rgb(0,69,123)"/><path d=" M 365.601 456.741 L 381.001 456.741 L 381.001 514.221 L 365.601 514.221 L 365.601 456.741 Z  M 381.001 441.46 C 381.118 446.397 377.591 449.807 372.889 449.807 C 368.658 449.807 365.131 446.397 365.249 441.46 C 365.131 436.288 368.893 433.114 373.124 433.114 C 377.591 433.114 381.001 436.288 381.001 441.46 Z " fill="rgb(0,69,123)"/><path d=" M 394.52 514.222 L 394.52 467.674 L 386.762 467.674 L 386.762 456.742 L 394.52 456.742 L 394.52 454.39 C 394.52 447.925 395.813 441.93 400.397 437.228 C 403.806 433.702 408.743 431.937 414.151 431.937 C 418.147 431.937 421.204 432.525 423.438 433.23 L 421.673 445.221 C 420.499 444.751 418.853 444.516 416.971 444.516 C 411.799 444.516 409.919 448.984 409.919 454.036 L 409.919 456.742 L 419.911 456.742 L 419.911 467.674 L 409.919 467.674 L 409.919 514.222 L 394.52 514.222 Z " fill="rgb(0,69,123)"/><path d=" M 444.127 441.225 L 444.127 456.741 L 455.412 456.741 L 455.412 467.674 L 444.127 467.674 L 444.127 493.887 C 444.127 500.587 446.948 502.23 450.003 502.23 C 451.533 502.23 452.71 502.115 454.003 501.88 L 454.119 513.871 C 452.002 514.456 448.828 514.929 444.714 514.929 C 440.248 514.929 436.369 513.871 433.664 511.284 C 430.491 508.226 428.727 503.878 428.727 494.826 L 428.727 467.674 L 421.91 467.674 L 421.91 456.741 L 428.727 456.741 L 428.727 444.869 L 444.127 441.225 Z " fill="rgb(0,69,123)"/><path d=" M 504.668 496.708 C 504.668 502.819 504.901 508.814 505.137 514.222 L 491.855 514.222 L 491.033 508.11 L 490.797 508.11 C 488.094 511.989 483.391 515.164 477.514 515.164 C 466.582 515.164 462.115 507.052 462.115 491.536 L 462.115 456.741 L 477.63 456.741 L 477.63 489.89 C 477.63 497.412 479.043 502.23 483.391 502.23 C 485.977 502.23 487.624 500.233 488.328 498.352 C 488.917 497.178 489.271 495.415 489.271 493.415 L 489.271 456.741 L 504.668 456.741 L 504.668 496.708 Z " fill="rgb(0,69,123)"/><path d=" M 515.721 474.02 C 515.721 467.673 515.37 462.147 515.251 456.741 L 528.535 456.741 L 529.24 463.323 L 529.474 463.323 C 532.533 458.738 537.47 455.798 543.463 455.798 C 554.395 455.798 558.746 464.499 558.746 477.313 L 558.746 514.221 L 543.346 514.221 L 543.346 478.253 C 543.346 473.315 542.17 468.732 537.705 468.732 C 535.119 468.732 533.003 470.495 531.945 473.904 C 531.475 475.078 531.121 476.96 531.121 479.191 L 531.121 514.221 L 515.721 514.221 L 515.721 474.02 Z " fill="rgb(0,69,123)"/><path d=" M 596.13 477.664 C 596.13 476.136 595.895 474.608 595.542 473.431 C 594.837 470.964 593.191 468.732 590.605 468.732 C 585.082 468.732 582.846 476.255 582.846 485.656 C 582.846 496.354 585.902 501.761 590.254 501.761 C 592.251 501.761 594.249 500.703 595.425 497.647 C 595.895 496.354 596.13 494.592 596.13 493.063 L 596.13 477.664 Z  M 612 456.741 C 611.765 461.913 611.411 468.024 611.411 474.962 L 611.411 507.757 C 611.411 520.101 609.179 526.917 604.477 531.384 C 600.244 535.382 594.249 537.733 585.786 537.733 C 580.495 537.733 575.558 536.791 571.444 535.028 L 574.265 523.156 C 577.205 524.449 580.849 525.624 585.317 525.624 C 593.074 525.624 596.13 520.451 596.13 511.636 L 596.13 508.11 L 595.895 508.11 C 593.898 511.754 589.9 513.871 585.551 513.871 C 572.621 513.871 567.565 499.764 567.565 486.011 C 567.565 466.85 576.265 455.799 586.96 455.799 C 591.547 455.799 595.307 458.15 597.542 462.501 L 597.776 462.501 L 598.597 456.741 L 612 456.741 Z " fill="rgb(0,69,123)"/><path d=" M 288.102 620.241 C 289.635 620.459 290.948 620.459 291.715 620.459 C 302.441 620.459 313.277 613.782 313.277 585.761 C 313.277 565.072 306.492 554.236 292.699 554.236 C 291.166 554.236 289.414 554.454 288.102 554.675 L 288.102 620.241 Z  M 283.396 551.61 C 286.351 550.515 289.414 550.187 292.699 550.187 C 299.487 550.187 304.413 551.939 308.023 555.113 C 313.387 559.6 318.203 569.013 318.203 585.104 C 318.203 603.164 313.934 611.484 310.213 616.189 C 305.615 621.993 298.61 624.618 291.276 624.618 C 288.54 624.618 285.583 624.508 283.396 623.962 L 283.396 551.61 Z " fill="rgb(182,16,29)"/><path d=" M 350.714 562.009 C 348.634 562.009 346.994 560.364 346.994 558.396 C 346.994 556.317 348.634 554.782 350.824 554.782 C 352.794 554.782 354.327 556.317 354.327 558.396 C 354.327 560.364 352.794 562.009 350.824 562.009 L 350.714 562.009 Z  M 335.17 562.009 C 333.09 562.009 331.449 560.364 331.449 558.396 C 331.449 556.317 333.09 554.782 335.28 554.782 C 337.25 554.782 338.783 556.317 338.783 558.396 C 338.783 560.364 337.25 562.009 335.28 562.009 L 335.17 562.009 Z  M 356.297 611.046 C 356.297 616.957 356.625 621.005 356.735 624.29 L 352.465 624.29 L 352.027 618.819 L 351.809 618.819 C 350.714 620.787 346.883 625.167 341.083 625.167 C 332.434 625.167 329.042 618.162 329.042 605.792 L 329.042 571.75 L 333.747 571.75 L 333.747 604.808 C 333.747 613.893 335.062 621.115 341.958 621.115 C 348.524 621.115 351.042 614.767 351.371 611.92 C 351.591 610.28 351.591 608.746 351.591 607.105 L 351.591 571.75 L 356.297 571.75 L 356.297 611.046 Z " fill="rgb(182,16,29)"/><path d=" M 366.921 618.052 C 368.67 619.254 371.516 620.787 374.8 620.787 C 380.273 620.787 383.885 617.068 383.885 611.264 C 383.885 606.559 382.463 603.057 376.77 599.005 C 370.97 594.846 366.154 590.905 366.154 584.119 C 366.154 576.13 372.282 570.873 378.96 570.873 C 382.901 570.873 385.747 572.406 387.499 573.719 L 385.419 577.55 C 383.447 576.02 381.367 575.035 378.631 575.035 C 373.595 575.035 370.859 579.083 370.859 583.135 C 370.859 587.402 372.282 589.81 377.647 593.751 C 382.68 597.364 388.701 601.74 388.701 609.951 C 388.701 620.349 381.806 624.947 374.583 624.947 C 371.08 624.947 367.357 623.744 365.167 621.883 L 366.921 618.052 Z " fill="rgb(182,16,29)"/><path d=" M 396.261 618.052 C 398.01 619.254 400.856 620.787 404.141 620.787 C 409.613 620.787 413.225 617.068 413.225 611.264 C 413.225 606.559 411.803 603.057 406.11 599.005 C 400.31 594.846 395.494 590.905 395.494 584.119 C 395.494 576.13 401.622 570.873 408.3 570.873 C 412.241 570.873 415.087 572.406 416.839 573.719 L 414.759 577.55 C 412.787 576.02 410.707 575.035 407.971 575.035 C 402.935 575.035 400.199 579.083 400.199 583.135 C 400.199 587.402 401.622 589.81 406.987 593.751 C 412.02 597.364 418.041 601.74 418.041 609.951 C 418.041 620.349 411.146 624.947 403.923 624.947 C 400.42 624.947 396.697 623.744 394.507 621.883 L 396.261 618.052 Z " fill="rgb(182,16,29)"/><path d=" M 448.912 592.22 C 449.13 579.302 443.768 575.035 439.937 575.035 C 433.806 575.035 430.521 583.791 429.975 592.22 L 448.912 592.22 Z  M 429.865 596.051 C 429.865 617.175 437.199 620.787 443.109 620.787 C 446.504 620.787 449.24 619.91 450.993 618.708 L 452.088 622.322 C 449.568 624.073 445.737 624.947 442.235 624.947 C 430.742 624.947 425.049 614.111 425.049 598.239 C 425.049 581.602 431.07 570.873 440.701 570.873 C 451.103 570.873 453.95 583.681 453.95 592.984 L 453.95 596.051 L 429.865 596.051 Z " fill="rgb(182,16,29)"/><path d=" M 463.583 548.544 L 468.288 548.544 L 468.288 624.29 L 463.583 624.29 L 463.583 548.544 Z " fill="rgb(182,16,29)"/><path d=" M 505.176 591.56 C 505.176 590.359 505.176 589.045 505.069 587.839 C 504.63 580.945 500.361 575.036 495.545 575.036 C 487.335 575.036 484.599 586.307 484.599 598.019 C 484.599 609.841 487.555 621.005 494.889 621.005 C 497.953 621.005 502.551 619.365 504.958 609.294 C 505.176 608.201 505.176 606.886 505.176 605.682 L 505.176 591.56 Z  M 509.884 548.544 L 509.884 613.565 C 509.884 616.19 510.213 622.321 510.323 624.289 L 506.271 624.289 L 505.833 617.286 L 505.397 617.286 C 503.864 621.005 500.361 625.167 494.34 625.167 C 486.896 625.167 479.673 617.286 479.673 598.239 C 479.673 579.411 487.335 570.873 494.889 570.873 C 498.281 570.873 502.44 572.295 504.958 577.661 L 505.176 577.661 L 505.176 548.544 L 509.884 548.544 Z " fill="rgb(182,16,29)"/><path d=" M 524.993 598.019 C 524.993 606.558 526.634 621.005 535.719 621.005 C 544.586 621.005 546.227 606.558 546.227 598.019 C 546.227 589.482 544.586 575.036 535.501 575.036 C 526.634 575.036 524.993 589.482 524.993 598.019 Z  M 551.153 598.019 C 551.153 617.396 543.381 625.167 535.283 625.167 C 527.839 625.167 520.067 617.396 520.067 598.019 C 520.067 578.644 527.839 570.873 536.047 570.873 C 543.491 570.873 551.153 578.644 551.153 598.019 Z " fill="rgb(182,16,29)"/><path d=" M 561.338 583.898 C 561.338 579.96 561.01 575.035 560.9 571.75 L 565.387 571.75 L 565.608 580.289 L 565.825 580.289 C 567.138 575.691 571.735 570.873 577.211 570.873 L 578.195 570.873 L 578.195 576.019 L 577.318 576.019 C 570.533 576.019 566.592 582.696 566.153 589.153 C 566.043 590.686 566.043 592.109 566.043 593.642 L 566.043 624.29 L 561.338 624.29 L 561.338 583.898 Z " fill="rgb(182,16,29)"/><path d=" M 589.36 624.29 L 589.36 575.799 L 583.011 575.799 L 583.011 571.75 L 589.36 571.75 L 589.36 567.809 C 589.36 562.337 590.016 556.206 593.519 551.939 C 596.583 548.326 600.635 547.67 602.714 547.67 C 605.122 547.67 606.873 548.216 608.186 548.982 L 606.873 552.813 C 605.889 552.375 604.465 551.829 602.166 551.829 C 595.271 551.829 594.065 559.601 594.065 567.809 L 594.065 571.75 L 604.027 571.75 L 604.027 575.799 L 594.065 575.799 L 594.065 624.29 L 589.36 624.29 Z " fill="rgb(182,16,29)"/><path d=" M 200.831 158.425 C 199.745 156.456 200.122 156.041 199.35 154.418 C 198.829 154.587 200.105 157.229 200.831 158.425 Z " fill-rule="evenodd" fill="rgb(0,69,123)"/><path d=" M 286.27 154.858 C 287.857 151.255 289.568 146.128 291.494 142.135 C 289.816 146.177 288.816 150.87 286.27 154.858 Z  M 284.548 157.588 C 285.231 156.795 285.316 155.78 286.084 155.214 C 286.114 155.768 284.811 157.881 284.548 157.588 Z  M 175.62 102.184 C 175.802 101.094 175.823 98.823 176.228 98.535 C 175.621 103.212 175.59 105.136 175.612 108.673 C 175.821 106.401 176.171 103.745 176.326 103.198 C 176.481 104.517 176.496 106.178 177.062 106.494 C 177.432 104.696 177.695 102.309 178.094 100.662 C 178.253 102.99 178.585 99.739 179.087 99.436 C 178.844 100.79 178.937 101.731 179.154 102.17 C 179.201 99.686 179.953 97.254 180.525 94.952 C 180.839 93.811 181.149 92.684 181.44 91.63 C 181.797 90.582 182.12 89.582 182.374 88.639 C 182.205 89.713 182.036 90.789 181.869 91.847 C 181.782 92.902 181.728 93.916 181.711 94.843 C 181.681 96.699 181.826 98.209 182.316 99.035 C 183.818 98.1 184.364 98.157 185.309 99.945 C 186.714 96.678 188.262 97.874 189.677 94.758 C 190.614 92.703 191.705 89.896 192.585 86.769 C 193.133 85.23 193.697 83.644 194.263 82.056 C 194.792 80.453 195.374 78.872 196.077 77.416 C 199.975 68.381 205.332 60.611 210.718 54.623 C 208.269 59.15 206.198 63.941 204.556 68.885 C 202.724 74.899 201.232 81.011 200.511 87.117 C 202.138 87.43 198.878 96.548 201.678 95.031 C 202.026 98.957 202.508 91.473 203.687 92.74 C 203.951 90.897 204.808 90.587 205.605 90.132 C 205.493 92.12 205.423 94.128 205.432 96.164 C 205.435 96.796 205.487 97.409 205.501 98.038 C 205.088 97.92 204.656 97.828 204.652 96.931 C 202.86 93.802 202.302 101.272 199.72 100.556 C 199.391 101.162 199.342 102.379 199.172 103.336 C 199.038 104.289 198.8 104.997 197.94 104.577 C 198.949 109.531 196.568 108.586 197.352 112.871 C 198.866 120.728 201.408 129.096 204.826 134.382 C 205.051 135.542 205.294 136.676 205.621 137.748 C 205.98 138.799 206.375 139.82 206.8 140.824 C 207.23 141.823 207.663 142.825 208.168 143.789 C 208.72 144.714 209.279 145.653 209.853 146.615 C 212.159 150.464 215.156 154.17 218.965 158.931 C 220.687 160.296 222.17 161.639 223.725 162.657 C 225.297 163.64 226.716 164.702 228.244 165.536 C 229.793 166.318 231.287 167.265 232.954 168.044 C 234.65 168.712 236.381 169.733 238.419 170.373 C 242.946 169.356 248.535 170.745 254.261 169.485 C 259.663 168.346 264.829 164.816 269.923 162.448 C 272.438 160.373 274.502 157.946 276.439 155.388 C 273.862 159.833 270.949 164.074 267.487 167.61 C 263.723 171.538 259.585 175.077 255.063 177.29 C 246.148 181.872 236.27 182.571 227.446 178.367 C 223.025 176.354 218.828 173.292 215.014 169.469 C 211.295 165.504 208.021 160.855 205.155 155.807 C 204.16 155.021 203.237 152.923 202.308 150.658 C 201.576 148.282 200.66 145.828 199.652 144.183 C 199.076 144.652 199.762 146.555 199.811 147.677 C 199.56 147.023 199.307 146.522 199.052 146.346 C 198.904 147.699 199.755 150.309 199.67 151.786 C 199.461 151.832 199.25 150.902 199.04 151.212 C 200.405 155.671 201.692 158.519 203.408 162.254 C 202.508 161.038 203.304 162.397 202.941 162.533 C 202.608 162.079 202.12 160.71 201.894 160.913 C 205.955 168.367 210.306 174.995 216.366 179.796 C 217.054 180.34 217.713 180.907 218.369 181.475 C 219.066 181.957 219.768 182.443 220.475 182.933 L 222.599 184.442 C 223.356 184.859 224.149 185.233 224.957 185.622 C 225.308 185.788 226.212 185.879 226.742 186.119 C 229.218 187.038 230.992 187.394 232.671 187.904 C 233.733 188.074 234.309 188.493 235.502 188.712 C 236.222 188.799 237.256 188.795 238.069 188.72 C 239.4 188.7 240.811 188.8 242.203 188.915 C 243.589 188.948 244.941 188.758 246.135 188.629 C 247.125 188.519 248.028 188.118 248.973 187.776 C 253.609 186.791 259.005 184.771 263.259 182.062 C 264.556 181.093 265.87 179.668 266.969 178.648 C 272.9 175.264 277.524 167.985 282.602 161.561 C 278.462 168.223 273.527 174.485 267.858 179.133 C 261.651 184.287 254.859 187.291 248.048 188.755 C 247.142 188.93 246.175 189.325 245.126 189.462 C 237.366 190.361 229.524 188.872 222.56 185.221 C 215.591 181.538 209.562 175.747 204.704 168.774 C 195.02 154.746 189.81 135.969 190.655 115.321 C 189.737 113.409 188.824 111.428 187.731 109.89 C 187.314 109.666 187.337 110.981 187.016 111.093 C 186.541 107.702 184.97 110.026 184.784 113.095 C 184.863 111.979 184.645 111.692 184.288 111.797 C 184.234 114.259 183.29 113.673 182.819 115.185 C 182.502 116.17 182.209 117.93 182.177 120.182 C 182.161 122.429 181.923 125.183 182.251 128.101 C 182.501 131.022 182.678 134.155 183.285 137.135 C 183.544 138.631 183.799 140.104 184.044 141.515 C 184.338 142.918 184.716 144.241 185.017 145.482 C 188.285 158.908 194.439 170.983 202.698 180.639 C 207.016 185.288 211.637 189.565 216.979 192.636 C 222.271 195.675 227.932 198.079 233.768 198.987 C 233.88 199.661 232.068 199.473 232.156 200.142 C 232.419 200.374 233.992 200.424 234.033 200.686 C 233.566 200.769 232.252 200.476 232.531 200.888 C 235.478 201.438 232.92 201.292 233.882 201.91 C 234.123 202.127 235.236 202.401 236.097 202.649 C 236.957 202.885 237.579 202.973 236.776 203.226 C 236.13 203.212 236.094 202.983 235.282 202.931 C 235.238 203.602 238.956 203.238 239.301 203.652 C 239.184 204.154 238.582 204.176 239.287 204.611 C 247.282 205.564 257.649 203.603 266.771 198.604 C 275.985 193.705 283.892 186.286 290.068 178.702 C 290.623 178.008 291.085 177.557 291.636 176.842 C 292.844 175.353 293.906 173.795 294.891 172.205 C 295.892 170.623 296.95 169.071 297.876 167.469 C 299.581 164.203 301.477 161.026 302.816 157.67 C 303.531 156.007 304.243 154.35 304.953 152.698 C 305.543 151.009 306.132 149.325 306.719 147.646 C 307.992 144.309 308.703 140.859 309.651 137.481 C 312.937 123.849 313.689 110.09 312.376 96.471 C 310.947 82.888 307.529 69.343 300.739 56.784 C 297.544 50.439 293.157 44.508 288.145 38.973 C 283.055 33.465 276.726 28.701 269.537 25.09 C 262.031 21.271 253.246 19.313 244.559 19.529 C 235.843 19.678 227.223 22.021 219.679 25.837 C 204.645 33.76 194.029 46.442 186.903 59.572 C 186.507 60.5 186.432 61.091 186.148 61.9 C 182.839 67.889 180.265 75.215 178.274 82.347 C 176.556 89.549 175.566 96.6 175.62 102.184 Z " fill-rule="evenodd" fill="rgb(0,69,123)"/><path d=" M 123.157 388.69 C 118.309 398.003 110.531 405.622 110.445 410.393 C 114.138 403.461 122.044 393.225 123.157 388.69 Z " fill-rule="evenodd" fill="rgb(0,69,123)"/><path d=" M 444.662 223.097 C 445.711 221.713 443.985 220.936 445.024 219.549 C 446.331 219.846 446.123 220.468 445.842 221.108 C 448.589 220.466 447.504 224.505 444.662 223.097 Z  M 433.744 221.34 C 434.48 220.56 433.73 220.159 432.911 219.773 C 433.435 219.188 434.583 219.784 434.308 220.306 C 435.431 220.328 436.214 219.709 436.837 218.797 C 437.808 221.645 441.259 220.406 443.324 219.489 C 444.515 220.387 444.418 221.564 443.965 222.822 C 440.115 221.474 437.772 223.003 433.744 221.34 Z  M 399.498 212.799 C 397.105 214.192 392.956 212.843 389.885 213.193 C 389.366 210.773 396.22 212.121 399.498 212.799 Z  M 409.383 214.038 C 408.113 215.768 404.329 213.215 402.314 213.682 C 403.385 211.766 408.295 212.88 409.383 214.038 Z  M 414.51 216.973 C 415.209 217.359 414.475 218.218 415.394 218.537 C 417.331 216.849 419.024 220.554 420.187 217.052 C 422.749 218.905 422.138 218.852 425.789 219.039 C 424.131 222.106 419.039 220.143 414.097 219.164 C 412.022 218.303 409.791 217.582 407.487 216.934 C 407.807 216.796 408.113 216.591 408.393 216.249 C 411.561 218.438 411.839 217.051 414.51 216.973 Z  M 323.649 274.238 C 326.525 272.297 334.647 269.349 338.974 270.771 C 332.98 271.433 329.281 273.154 323.649 274.238 Z  M 305.869 279.785 C 299.645 281.189 310.251 277.94 312.555 276.872 C 311.832 279.044 307.064 279.461 305.869 279.785 Z  M 128.827 381.895 C 130.665 379.654 130.535 380.01 132.187 378.401 C 132.97 378.847 130.849 382.867 128.827 381.895 Z  M 472.908 235.896 C 475.565 235.191 472.099 230.174 470.715 231.24 C 471.645 230.161 472.471 229.109 470.952 228.312 C 466.576 228.137 462.208 226.308 459.005 224.178 C 457.641 225.388 450.093 224.574 451.662 221.671 C 453.784 223.831 455.072 222.347 456.411 221.235 C 455.995 222.015 455.252 222.86 456.895 223.274 C 458.391 221.317 459.143 223.904 460.57 221.811 C 460.628 223.866 460.808 223.287 464.199 224.646 C 466.32 222.547 461.16 224.092 461.991 222.437 C 462.574 221.647 467.267 223.595 465.398 221.536 C 457.942 220.65 451.387 218.146 447.432 219.903 C 445.021 217.714 433.88 215.913 428.548 216.915 C 428.01 214.719 424.867 216.556 423.883 214.599 C 432.849 215.034 439.492 216.689 448.499 216.657 C 434.967 214.505 424.05 212.574 411.294 213.398 C 415.079 214.968 421.35 212.69 422.382 215.943 C 418.176 215.457 414.304 215.597 409.84 214.817 C 410.255 213.897 410.669 212.979 411.084 212.063 C 407.673 211.798 401.692 212.996 399.964 209.747 C 396.941 213.284 393.804 208.584 391.485 211.077 C 390.024 210.853 390.38 209.896 389.8 209.31 C 385.924 215.365 377.52 211.211 371.197 211.501 C 372.713 209.932 372.806 208.68 370.954 207.528 C 369.163 209.715 368.132 212.502 361.259 211.795 C 362.398 210.771 362.531 208.72 361.1 209.784 C 361.181 209.96 356.683 210.874 355.255 211.818 C 351.794 211.756 347.141 210.024 344.105 211.641 C 344.466 212.02 344.815 212.402 345.172 212.781 C 324.804 213.432 302.136 216.277 279.834 221.549 C 251.832 228.037 224.633 238.575 203.096 249.557 C 186.47 257.785 170.21 267.672 154.646 278.722 C 139.354 290.054 124.762 302.662 112.503 316.619 C 87.258 344.855 64.987 376.858 52.554 409.483 C 50.076 415.409 48.509 421.231 47.183 426.949 C 45.908 432.653 44.513 438.34 43.851 443.785 C 42.56 454.478 41.319 465.132 40.146 475.569 C 36.851 498.032 38.256 518.066 41.401 535.893 C 54.875 520.258 47.214 514.495 49.723 504.014 C 51.947 495.807 54.645 487.172 58.706 478.161 C 60.781 473.69 62.904 469.18 65.061 464.665 C 67.14 460.214 69.445 455.752 71.987 451.307 C 76.855 442.463 81.329 433.97 85.996 425.725 C 88.239 421.614 90.132 417.594 92.013 413.627 C 94.034 409.658 95.783 405.75 97.203 401.866 C 102.084 396.391 106.648 391.368 110.717 386.415 C 114.71 381.458 118.302 376.577 122.33 371.654 C 126.272 366.725 129.915 361.593 134.659 356.451 C 139.266 351.281 144.078 345.833 150.311 340.488 C 155.525 335.805 161.689 331.793 168.099 328.268 C 173.512 325.144 178.828 322.254 183.759 319.27 C 180.358 322.823 177.163 326.342 170.742 328.48 C 173.307 329.208 169.576 330.484 170.49 331.349 C 166.635 335.179 162.765 339.106 158.962 343.042 C 157.003 344.98 155.187 346.975 153.511 349.006 C 151.795 351.016 150.105 353.014 148.452 354.987 C 145.167 358.936 142.017 362.774 139.243 366.435 C 136.683 370.168 134.402 373.687 132.512 376.874 C 133.241 375.722 134.013 374.64 135.549 374.951 C 134.158 376.048 138.99 375.442 137.604 376.531 C 135.597 377.117 134.28 378.947 131.156 377.62 C 128.802 380.815 126.457 384.037 124.124 387.288 C 124.241 387.898 126.469 387.635 125.95 389.211 C 122.839 394.059 119.927 398.683 117.082 403.272 C 114.258 407.864 111.234 412.384 108.858 417.176 C 106.382 421.948 103.86 426.881 101.191 432.202 C 98.432 437.511 96.154 443.243 93.782 449.561 C 94.598 448.644 94.187 446.592 95.851 446.471 C 92.576 454.701 90.788 459.055 87.068 467.021 C 93.185 460.641 95.444 449.929 99.248 445.366 C 99.425 446.304 98.424 447.911 99.491 449.803 C 102.34 445.411 104.718 441.065 107.374 436.807 C 110.052 432.552 112.562 428.346 114.955 424.171 C 117.403 420.008 119.498 415.828 121.962 411.753 C 124.459 407.687 126.895 403.645 129.318 399.634 C 131.826 395.647 133.959 391.585 136.788 387.748 C 139.516 383.884 142.275 380.064 145.117 376.307 C 150.548 368.704 157.463 361.779 164.5 355.217 C 166.073 353.801 167.602 352.194 169.285 350.561 C 171.017 348.953 172.776 347.263 174.544 345.561 C 178.077 342.157 181.65 338.706 185.085 335.781 C 188.822 332.649 192.789 329.494 196.561 326.112 C 200.412 322.781 204.083 319.207 208.398 316.012 C 212.596 312.744 216.917 309.511 221.428 306.481 C 226.048 303.535 231.079 300.964 236.203 298.692 C 215.48 311.811 192.599 327.455 174.234 347.838 C 173.108 349.029 171.816 350.229 170.44 351.475 C 169.155 352.765 167.824 354.111 166.453 355.507 C 163.764 358.321 161.106 361.434 159.229 364.964 C 158.279 366.755 161.826 363.534 162.727 361.978 C 170.547 359.652 171.495 352.942 176.489 348.269 C 178.371 346.415 181.835 345.157 183.489 343.316 C 185.626 340.946 187.557 339.536 189.253 337.904 C 210.454 318.656 231.421 304.148 253.329 292.373 C 275.27 280.681 298.267 271.733 324.447 265.801 C 331.398 264.378 338.489 262.348 346.447 262.712 C 346.32 262.363 346.16 261.996 346.117 261.693 C 349.161 261.256 352.273 260.796 355.454 260.352 C 356.702 260.171 357.998 260.037 359.29 259.902 C 360.849 259.883 362.411 259.865 363.973 259.854 C 351.224 261.945 339.136 264.406 328.239 268.358 C 333.641 266.928 339.304 265.633 345.162 264.403 C 351.139 263.333 357.286 262.322 363.596 261.386 C 364.316 261.426 364.144 261.902 363.962 262.376 C 367.408 261.257 370.981 260.452 374.589 259.856 C 379.704 259.89 384.804 259.982 389.885 260.132 C 376.985 261.429 363.318 262.805 350.973 266.345 C 350.231 266.432 349.489 266.52 348.747 266.61 C 349.171 267.33 350.287 266.903 351.185 266.841 C 356.59 267.013 359.17 264.171 362.474 266.116 C 353.158 266.612 348.199 269.58 340.121 269.508 C 342.209 268.549 343.918 269.348 344.013 267.808 C 324.544 271.695 301.138 277.437 285.878 286.804 C 288.526 284.985 293.524 283.419 296.488 283.234 C 276.411 292.215 259.417 299.531 241.689 311.256 C 240.041 312.305 230.657 318.491 239.545 313.848 C 258.272 303.379 279.798 291.162 300.044 283.866 C 325.262 274.886 344.983 270.419 364.155 267.213 C 383.395 264.202 402.078 262.182 426.962 262.42 C 428.327 262.441 429.778 262.465 431.172 262.495 C 435.173 262.675 439.166 262.795 443.142 262.85 C 446.026 262.96 448.903 263.089 451.795 263.235 C 451.454 263.116 451.096 262.991 450.755 262.872 C 456.109 262.843 461.417 262.721 466.62 262.469 C 467.122 260.938 468.525 261.713 469.181 260.523 C 470.369 258.873 468.94 257.648 470.138 256.018 C 470.719 255.412 471.63 255.635 472.521 255.782 C 473.523 255.983 474.493 256.105 474.921 255.149 C 471.795 253.014 474.577 253.419 476.852 252.99 C 471.304 251.309 477.318 251.423 474.219 249.906 C 475.757 248.845 478.598 250.38 479.797 248.275 C 478.685 246.733 476.767 245.509 477.133 243.945 C 480.61 243.324 477.177 242.545 480.423 242.485 C 477.696 239.28 476.162 239.646 472.908 235.896 Z " fill-rule="evenodd" fill="rgb(0,69,123)"/></svg>