<?xml version="1.0" encoding="UTF-8" standalone="no"?><!-- Generator: Gravit.io --><svg xmlns="http://www.w3.org/2000/svg" xmlns:xlink="http://www.w3.org/1999/xlink" style="isolation:isolate" viewBox="0 0 400 400" width="400pt" height="400pt"><defs><clipPath id="_clipPath_YyKJmb7O2zsrRzx7gTLJDyVjqXoyN5CH"><rect width="400" height="400"/></clipPath></defs><g clip-path="url(#_clipPath_YyKJmb7O2zsrRzx7gTLJDyVjqXoyN5CH)"><path d=" M 326.165 279.378 C 318.308 274.078 314.178 265.509 313.411 252.914 C 312.839 243.528 313.777 236.455 317.814 219.718 C 321.42 204.77 321.902 201.779 322.131 192.923 L 322.331 185.224 L 321.215 183.174 C 320.602 182.046 319.992 181.135 319.862 181.15 C 319.457 181.194 314.541 187.026 311.555 191.005 C 305.042 199.682 301.346 208.24 300.673 216.202 L 300.413 219.283 L 298.311 219.719 C 294.078 220.598 293.977 220.569 293.38 218.311 C 292.582 215.293 292.959 207.755 294.073 204.441 C 295.584 199.946 298.976 193.65 303.823 186.34 C 309.205 178.226 312.714 171.817 314.005 167.743 C 315.063 164.408 315.19 164.33 320.207 163.974 L 323.689 163.727 L 324.933 166.897 C 327.898 174.448 328.989 179.758 329.344 188.36 C 329.75 198.188 328.713 206.961 324.618 228.361 C 321.068 246.91 321.112 246.486 322.167 252.254 C 323.989 262.217 326.494 267.988 331.196 273.05 C 332.329 274.27 332.364 274.422 332.081 276.87 C 331.919 278.271 331.632 279.826 331.444 280.323 C 330.905 281.746 329.233 281.447 326.165 279.378 Z  M 290.126 239.522 L 288.368 239.366 L 288.584 237.755 C 288.916 235.282 290.504 233.227 293.044 231.985 C 295.014 231.021 295.93 230.868 301.608 230.553 C 305.105 230.36 308.644 230.194 309.473 230.186 L 310.981 230.17 L 310.981 233.982 C 310.981 238.487 312.134 237.863 301.708 239.003 C 294.377 239.805 293.662 239.837 290.126 239.522 Z  M 326.418 234.374 C 326.086 233.05 326.512 230.416 327.308 228.876 C 328.261 227.033 330.955 224.278 334.298 221.726 C 337.743 219.096 340.733 216.028 341.731 214.098 C 343.88 209.942 345.336 196.196 344.384 189.051 C 343.087 179.319 338.05 168.484 331.483 161.299 C 330.378 160.09 329.474 158.922 329.474 158.704 C 329.474 158.486 331.403 156.521 333.761 154.338 C 336.784 151.54 338.106 150.546 338.241 150.972 C 338.773 152.645 345.482 165.161 346.989 167.292 C 350.25 171.901 354.578 175.186 358.828 176.279 C 359.82 176.534 361.313 177.004 362.146 177.325 C 364.341 178.168 367.354 178.044 372.412 176.902 C 379.98 175.194 382.389 175.679 384.124 179.262 C 385.562 182.233 385.274 182.758 381.507 184.021 C 374.902 186.237 366.199 186.333 357.477 184.285 C 354.79 183.655 353.808 183.564 353.457 183.915 C 352.929 184.441 352.901 187.906 353.377 193.586 C 353.644 196.773 353.553 198.16 352.824 201.959 C 350.61 213.508 346.282 221.96 339.184 228.601 C 336.384 231.221 335.366 231.912 333.526 232.442 C 332.292 232.797 330.246 233.608 328.979 234.244 L 326.676 235.4 L 326.418 234.374 Z  M 303.649 163.436 C 303.044 163.254 301.914 162.712 301.137 162.232 C 299.977 161.515 299.724 161.118 299.724 160.016 L 299.724 158.674 L 302.438 158.408 C 309.217 157.745 314.69 155.506 320.082 151.193 C 325.833 146.591 330.815 139.958 338.921 126.108 C 341.53 121.651 343.176 119.235 343.609 119.226 C 344.422 119.209 346.268 121.323 346.602 122.653 C 347.14 124.796 344.051 135.118 341.102 141.029 C 335.407 152.446 325.847 160.216 313.996 163.059 C 310.698 163.85 305.637 164.035 303.649 163.436 Z  M 103.335 157.809 L 38.207 157.605 L 36.898 156.671 C 35.251 155.497 32.736 150.389 31.618 145.946 C 29.687 138.279 28.569 129.886 27.949 118.408 C 27.716 114.096 27.148 104.779 26.688 97.703 C 25.775 83.657 25.841 74.865 26.957 61.722 C 28.642 41.888 31.704 29.992 35.819 27.296 C 36.951 26.554 48.819 25.832 87.339 24.161 C 123.572 22.59 162.719 23.882 184.725 27.376 C 189.688 28.164 190.6 28.862 192.982 33.692 C 195.391 38.575 196.771 44.125 197.13 50.37 C 197.521 57.165 197.361 58.773 196.266 59.066 C 194.865 59.442 190.383 59.344 189.591 58.92 C 188.446 58.307 187.624 55.704 186.957 50.575 C 185.542 39.694 183.619 37.136 175.395 35.193 C 166.209 33.023 152.239 32.212 124.441 32.237 C 97.426 32.262 76.56 33.093 55.624 34.979 C 50.45 35.445 48.972 35.724 47.367 36.538 C 43.207 38.646 40.099 43.57 38.195 51.072 C 36.737 56.82 36.442 60.594 36.01 79.045 C 35.388 105.573 36.398 118.419 40.184 132.159 C 42.473 140.462 44.375 143.281 49.314 145.69 C 54.806 148.369 52.655 148.273 107.154 148.257 C 154.391 148.242 169.989 147.946 176.119 146.949 C 181.824 146.02 185.093 140.104 186.97 127.312 C 187.846 121.346 187.951 120.985 189.114 119.946 C 191.474 117.838 194.566 118.091 195.882 120.501 C 197.064 122.666 196.817 129.668 195.303 136.901 C 193.351 146.226 191.562 152.539 190.52 153.777 C 188.488 156.192 182.496 157.635 173.488 157.878 C 170.724 157.953 139.155 157.922 103.335 157.809 Z  M 286.658 151.211 C 284.039 150.563 282.464 149.714 280.57 147.928 L 279.027 146.473 L 279.968 145.711 C 281.424 144.531 284.571 143.741 290.276 143.122 C 293.151 142.811 296.317 142.291 297.312 141.968 C 308.247 138.417 315.065 134.047 323.904 124.924 C 328.229 120.46 337.133 109.417 337.792 107.699 C 337.926 107.351 338.649 107.151 339.776 107.151 C 341.85 107.151 341.847 106.912 339.86 112.967 C 335.374 126.64 326.118 137.956 312.893 145.934 C 309.92 147.728 309.356 147.9 300.272 149.794 C 290.05 151.924 289.696 151.961 286.658 151.211 Z  M 92.422 142.738 C 92.809 141.728 107.561 121.251 110.842 117.167 C 117.598 108.76 127.469 98.409 131.202 95.817 C 133.981 93.888 138.892 92.303 143.691 91.785 C 149.407 91.169 196.396 91.192 232.787 91.828 C 263.66 92.368 262.813 92.296 271.621 95.087 C 274.349 95.951 276.658 96.581 276.751 96.488 C 276.844 96.395 276.427 95.671 275.824 94.881 C 274.406 93.021 271.255 90.953 267.96 89.718 C 262.456 87.656 260.591 87.528 229.169 87.064 C 200.834 86.645 188.088 86.344 154.191 85.295 L 138.311 84.803 L 135.954 83.628 C 131.802 81.557 128.483 77.906 112.11 57.394 C 103.414 46.5 96.299 37.49 96.299 37.371 C 96.299 36.967 105.343 37.704 105.917 38.156 C 106.231 38.403 110.455 43.913 115.304 50.399 C 125.745 64.368 128.863 68.15 133.666 72.671 C 138.423 77.148 140.092 78.251 143.062 78.876 C 148.787 80.081 164.352 80.362 199.151 79.89 C 239.495 79.343 253.018 79.634 259.32 81.184 C 264.353 82.422 270.533 84.568 274.395 86.419 C 276.025 87.2 277.429 87.769 277.515 87.683 C 277.891 87.308 276.316 85.065 274.457 83.326 C 268.625 77.871 259.938 74.472 249.069 73.392 C 244.714 72.96 219.727 72.76 203.439 73.028 C 198.353 73.111 188.222 73.176 180.926 73.171 C 169.008 73.162 167.155 73.071 162.706 72.27 C 156.813 71.209 150.223 69.094 146.346 67.019 C 144.021 65.774 143.384 65.206 142.649 63.719 C 140.534 59.443 140.312 47.799 142.168 38.505 L 142.589 36.395 L 145.777 36.395 C 147.53 36.395 148.993 36.44 149.029 36.495 C 149.064 36.55 149.207 41.028 149.347 46.445 C 149.625 57.227 149.759 57.897 152.19 60.666 C 153.963 62.685 155.079 63.195 158.837 63.7 C 166.797 64.77 172.894 64.945 201.892 64.938 C 219.788 64.934 234.57 65.105 237.471 65.35 C 251.081 66.501 261.972 69.219 271.453 73.833 C 276.051 76.07 276.563 76.442 279.842 79.924 C 286.011 86.475 291.984 95.231 295.401 102.729 L 296.958 106.146 L 296.812 103.696 C 296.487 98.233 288.442 84.914 275.848 68.992 C 273.502 66.026 271.582 63.458 271.582 63.286 C 271.582 62.708 273.36 61.722 274.404 61.722 C 276.24 61.722 280.976 64.919 283.128 67.611 C 294.109 81.349 300.97 92.537 304.167 101.925 C 304.883 104.025 305.895 106.192 306.416 106.74 L 307.364 107.737 L 308.58 106.521 L 309.796 105.305 L 308.756 101.705 C 306.433 93.666 303.9 88.695 294.133 73.015 C 286.681 61.051 286.635 60.918 289.89 60.918 C 291.299 60.918 292.158 61.287 294.564 62.924 C 296.186 64.028 297.8 65.158 298.151 65.437 C 299.178 66.253 307.231 79.907 310.024 85.57 C 311.435 88.432 313.239 92.875 314.032 95.444 C 316.134 102.254 316.141 102.262 318.429 100.253 C 319.893 98.968 319.917 98.898 319.683 96.715 C 319.138 91.621 316.211 82.481 312.74 75.031 C 311.773 72.953 310.981 71.011 310.981 70.715 C 310.981 70.419 311.504 69.591 312.145 68.875 C 313.265 67.62 313.352 67.594 314.456 68.165 C 316.325 69.13 319.531 72.635 320.898 75.206 C 321.598 76.524 323.207 81.085 324.473 85.341 C 325.74 89.598 326.92 93.08 327.097 93.08 C 327.274 93.08 328.016 92.329 328.748 91.411 C 332.121 87.176 333.345 86.586 335.032 88.382 C 336.123 89.544 336.142 91.063 335.102 94.085 C 334.028 97.208 334.069 98.073 335.322 98.644 C 335.885 98.901 336.609 99.11 336.93 99.11 C 337.72 99.11 337.665 100.155 336.731 102.868 C 333.97 110.894 328.016 117.975 318.619 124.408 C 309.693 130.519 298.111 134.339 287.128 134.795 C 281.679 135.021 278.51 134.388 275.803 132.536 C 273.724 131.112 273.65 129.863 275.567 128.571 C 277.661 127.16 280.43 126.5 286.209 126.036 C 304.158 124.595 317.741 118.073 327.6 106.161 C 329.148 104.291 329.183 104.199 328.067 104.931 C 315.823 112.965 302.483 118.83 292.376 120.623 C 289.344 121.161 287.092 121.274 282.526 121.116 C 276.255 120.899 272.511 120.146 268.177 118.229 C 265.781 117.169 265.475 116.62 265.651 113.691 L 265.753 111.989 L 232.787 111.787 C 214.656 111.675 195.577 111.584 190.39 111.585 C 178.394 111.587 166.729 112.359 156.804 113.807 C 152.12 114.49 151.3 115.1 149.734 119.066 C 148.678 121.739 148.471 126.915 149.122 134.373 C 149.527 139.017 149.034 141.752 147.612 142.747 C 147.094 143.11 145.811 143.333 144.242 143.333 C 141.231 143.333 141.232 143.335 140.564 137.885 C 139.585 129.903 140.189 121.227 142.129 115.395 C 142.907 113.057 143.241 112.604 145.232 111.178 C 149.43 108.172 156.443 106.164 166.247 105.16 C 168.65 104.914 178.682 104.736 189.565 104.747 C 200.07 104.758 218.887 104.648 231.38 104.504 C 245.924 104.336 258.13 104.404 265.316 104.693 C 271.487 104.941 276.615 105.066 276.71 104.971 C 277.11 104.571 272.41 102.313 269.599 101.555 C 264.064 100.062 261.527 99.903 237.209 99.53 C 223.942 99.326 202.414 98.947 189.368 98.688 C 153.33 97.971 150.043 97.982 146.955 98.831 C 141.498 100.33 136.726 102.626 132.683 105.699 C 128.598 108.803 123.888 114.092 112.684 128.157 L 100.594 143.333 L 96.394 143.333 C 92.848 143.333 92.229 143.24 92.422 142.738 Z " fill="rgb(0,0,0)"/><path d=" M 45.244 360.485 L 45.67 356.284 L 51.889 356.284 L 51.32 362.745 L 51.32 362.745 Q 50.68 369.205 46.594 373.195 L 46.594 373.195 L 46.594 373.195 Q 42.543 377.184 36.076 377.184 L 36.076 377.184 L 36.076 377.184 Q 27.015 377.184 22.964 370.864 L 22.964 370.864 L 22.964 370.864 Q 18.949 364.51 18.949 352.189 L 18.949 352.189 L 18.949 348.2 L 18.949 348.2 Q 18.949 333.972 23.142 327.053 L 23.142 327.053 L 23.142 327.053 Q 27.335 320.133 36.183 320.133 L 36.183 320.133 L 36.183 320.133 Q 43.289 320.133 47.589 324.581 L 47.589 324.581 L 47.589 324.581 Q 51.889 329.03 51.889 336.09 L 51.889 336.09 L 51.889 337.644 L 51.889 337.644 L 45.67 337.644 L 45.67 337.644 L 45.67 337.644 Q 45.244 325.57 35.827 325.57 L 35.827 325.57 L 35.827 325.57 Q 30.781 325.57 27.974 330.477 L 27.974 330.477 L 27.974 330.477 Q 25.167 335.384 25.167 350.635 L 25.167 350.635 L 25.167 350.635 Q 25.167 361.121 27.69 366.452 L 27.69 366.452 L 27.69 366.452 Q 30.213 371.747 35.756 371.747 L 35.756 371.747 L 35.756 371.747 Q 44.071 371.747 45.244 360.485 L 45.244 360.485 Z  M 36.822 375.772 L 36.822 375.772 L 36.822 375.772 Z  M 66.528 375.772 L 60.772 375.772 L 60.772 321.545 L 66.528 321.545 L 66.528 375.772 Z  M 64.041 375.772 L 64.041 375.772 L 64.041 375.772 Z  M 77.295 366.381 L 77.295 335.667 L 83.052 335.667 L 83.052 366.875 L 83.052 366.875 Q 83.052 369.346 84.189 370.688 L 84.189 370.688 L 84.189 370.688 Q 85.326 371.994 88.346 371.994 L 88.346 371.994 L 88.346 371.994 Q 91.615 371.994 94.103 369.523 L 94.103 369.523 L 94.103 369.523 Q 96.626 367.016 96.626 361.05 L 96.626 361.05 L 96.626 335.667 L 102.382 335.667 L 102.382 375.772 L 96.626 375.772 L 96.626 370.053 L 96.626 370.053 Q 93.783 376.831 86.498 376.831 L 86.498 376.831 L 86.498 376.831 Q 77.295 376.831 77.295 366.381 L 77.295 366.381 Z  M 98.651 375.772 L 98.651 375.772 L 98.651 375.772 Z  M 118.799 375.772 L 113.575 375.772 L 113.575 321.545 L 119.332 321.545 L 119.332 340.256 L 119.332 340.256 Q 120.398 337.75 122.778 336.196 L 122.778 336.196 L 122.778 336.196 Q 125.159 334.608 128.108 334.608 L 128.108 334.608 L 128.108 334.608 Q 134.54 334.608 137.738 339.762 L 137.738 339.762 L 137.738 339.762 Q 140.936 344.881 140.936 353.248 L 140.936 353.248 L 140.936 353.248 Q 140.936 364.863 138.022 370.864 L 138.022 370.864 L 138.022 370.864 Q 135.144 376.831 128.215 376.831 L 128.215 376.831 L 128.215 376.831 Q 121.712 376.831 118.799 370.617 L 118.799 370.617 L 118.799 375.772 Z  M 119.332 354.131 L 119.332 356.602 L 119.332 359.073 L 119.332 359.073 Q 119.332 366.734 121.464 369.382 L 121.464 369.382 L 121.464 369.382 Q 123.631 371.994 127.22 371.994 L 127.22 371.994 L 127.22 371.994 Q 131.804 371.994 133.403 367.652 L 133.403 367.652 L 133.403 367.652 Q 135.002 363.274 135.002 354.943 L 135.002 354.943 L 135.002 354.943 Q 135.002 339.444 127.114 339.444 L 127.114 339.444 L 127.114 339.444 Q 122.921 339.444 121.108 342.833 L 121.108 342.833 L 121.108 342.833 Q 119.332 346.223 119.332 354.131 L 119.332 354.131 Z  M 45.244 289.409 L 45.67 285.208 L 51.889 285.208 L 51.32 291.668 L 51.32 291.668 Q 50.68 298.129 46.594 302.118 L 46.594 302.118 L 46.594 302.118 Q 42.543 306.107 36.076 306.107 L 36.076 306.107 L 36.076 306.107 Q 27.015 306.107 22.964 299.788 L 22.964 299.788 L 22.964 299.788 Q 18.949 293.433 18.949 281.112 L 18.949 281.112 L 18.949 277.123 L 18.949 277.123 Q 18.949 262.896 23.142 255.976 L 23.142 255.976 L 23.142 255.976 Q 27.335 249.057 36.183 249.057 L 36.183 249.057 L 36.183 249.057 Q 43.289 249.057 47.589 253.505 L 47.589 253.505 L 47.589 253.505 Q 51.889 257.953 51.889 265.014 L 51.889 265.014 L 51.889 266.567 L 51.889 266.567 L 45.67 266.567 L 45.67 266.567 L 45.67 266.567 Q 45.244 254.493 35.827 254.493 L 35.827 254.493 L 35.827 254.493 Q 30.781 254.493 27.974 259.401 L 27.974 259.401 L 27.974 259.401 Q 25.167 264.308 25.167 279.559 L 25.167 279.559 L 25.167 279.559 Q 25.167 290.044 27.69 295.375 L 27.69 295.375 L 27.69 295.375 Q 30.213 300.671 35.756 300.671 L 35.756 300.671 L 35.756 300.671 Q 44.071 300.671 45.244 289.409 L 45.244 289.409 Z  M 36.822 304.695 L 36.822 304.695 L 36.822 304.695 Z  M 59.244 283.16 L 59.244 283.16 L 59.244 283.16 Q 59.244 273.593 62.868 268.58 L 62.868 268.58 L 62.868 268.58 Q 66.528 263.531 73.706 263.531 L 73.706 263.531 L 73.706 263.531 Q 80.635 263.531 84.26 268.65 L 84.26 268.65 L 84.26 268.65 Q 87.92 273.734 87.92 282.983 L 87.92 282.983 L 87.92 282.983 Q 87.92 294.387 84.615 300.07 L 84.615 300.07 L 84.615 300.07 Q 81.346 305.754 73.813 305.754 L 73.813 305.754 L 73.813 305.754 Q 66.066 305.754 62.655 300.529 L 62.655 300.529 L 62.655 300.529 Q 59.244 295.269 59.244 283.16 Z  M 65.178 285.031 L 65.178 285.031 L 65.178 285.031 Q 65.178 293.292 67.168 297.105 L 67.168 297.105 L 67.168 297.105 Q 69.193 300.918 73.6 300.918 L 73.6 300.918 L 73.6 300.918 Q 78.219 300.918 80.102 296.928 L 80.102 296.928 L 80.102 296.928 Q 81.986 292.939 81.986 285.031 L 81.986 285.031 L 81.986 285.031 Q 81.986 276.134 80.031 272.251 L 80.031 272.251 L 80.031 272.251 Q 78.077 268.368 73.564 268.368 L 73.564 268.368 L 73.564 268.368 Q 69.265 268.368 67.204 272.18 L 67.204 272.18 L 67.204 272.18 Q 65.178 275.993 65.178 285.031 Z  M 97.514 304.695 L 97.514 264.59 L 103.093 264.59 L 103.093 269.745 L 103.093 269.745 Q 106.895 263.531 112.793 263.531 L 112.793 263.531 L 112.793 263.531 Q 119.012 263.531 122.352 269.745 L 122.352 269.745 L 122.352 269.745 Q 126.58 263.531 133.19 263.531 L 133.19 263.531 L 133.19 263.531 Q 137.241 263.531 140.154 265.967 L 140.154 265.967 L 140.154 265.967 Q 143.068 268.403 143.068 273.981 L 143.068 273.981 L 143.068 304.695 L 137.312 304.695 L 137.312 275.605 L 137.312 275.605 Q 137.312 271.686 135.89 270.027 L 135.89 270.027 L 135.89 270.027 Q 134.505 268.368 131.235 268.368 L 131.235 268.368 L 131.235 268.368 Q 128.144 268.368 125.657 270.733 L 125.657 270.733 L 125.657 270.733 Q 123.169 273.063 123.169 277.017 L 123.169 277.017 L 123.169 304.695 L 117.413 304.695 L 117.413 275.605 L 117.413 275.605 Q 117.413 268.368 111.337 268.368 L 111.337 268.368 L 111.337 268.368 Q 107.996 268.368 105.616 270.592 L 105.616 270.592 L 105.616 270.592 Q 103.27 272.781 103.27 278.006 L 103.27 278.006 L 103.27 304.695 L 97.514 304.695 Z  M 159.343 264.59 L 159.343 269.18 L 159.343 269.18 Q 160.444 266.744 162.718 265.155 L 162.718 265.155 L 162.718 265.155 Q 164.993 263.531 167.942 263.531 L 167.942 263.531 L 167.942 263.531 Q 174.196 263.531 177.643 268.438 L 177.643 268.438 L 177.643 268.438 Q 181.125 273.346 181.125 281.854 L 181.125 281.854 L 181.125 281.854 Q 181.125 305.754 167.942 305.754 L 167.942 305.754 L 167.942 305.754 Q 162.256 305.754 159.52 300.106 L 159.52 300.106 L 159.52 318.252 L 153.764 318.252 L 153.764 264.59 L 159.343 264.59 Z  M 159.52 285.525 L 159.52 285.525 L 159.52 285.525 Q 159.52 300.918 167.231 300.918 L 167.231 300.918 L 167.231 300.918 Q 171.46 300.918 173.307 296.893 L 173.307 296.893 L 173.307 296.893 Q 175.191 292.868 175.191 283.866 L 175.191 283.866 L 175.191 283.866 Q 175.191 268.368 167.302 268.368 L 167.302 268.368 L 167.302 268.368 Q 163.322 268.368 161.404 271.827 L 161.404 271.827 L 161.404 271.827 Q 159.52 275.287 159.52 285.525 Z  M 190.506 295.304 L 190.506 264.59 L 196.262 264.59 L 196.262 295.799 L 196.262 295.799 Q 196.262 298.27 197.399 299.611 L 197.399 299.611 L 197.399 299.611 Q 198.536 300.918 201.557 300.918 L 201.557 300.918 L 201.557 300.918 Q 204.826 300.918 207.313 298.446 L 207.313 298.446 L 207.313 298.446 Q 209.836 295.94 209.836 289.974 L 209.836 289.974 L 209.836 264.59 L 215.593 264.59 L 215.593 304.695 L 209.836 304.695 L 209.836 298.976 L 209.836 298.976 Q 206.993 305.754 199.709 305.754 L 199.709 305.754 L 199.709 305.754 Q 190.506 305.754 190.506 295.304 L 190.506 295.304 Z  M 211.862 304.695 L 211.862 304.695 L 211.862 304.695 Z  M 227.603 269.427 L 222.024 269.427 L 222.024 264.59 L 227.603 264.59 L 227.603 253.858 L 233.359 253.858 L 233.359 264.59 L 240.182 264.59 L 240.182 269.427 L 233.359 269.427 L 233.359 296.752 L 233.359 296.752 Q 233.359 298.588 233.821 299.223 L 233.821 299.223 L 233.821 299.223 Q 234.319 299.859 236.309 299.859 L 236.309 299.859 L 240.004 299.859 L 240.004 299.859 L 240.004 304.695 L 240.004 304.695 L 233.608 304.695 L 233.608 304.695 Q 230.09 304.695 228.847 303.283 L 228.847 303.283 L 228.847 303.283 Q 227.603 301.836 227.603 298.235 L 227.603 298.235 L 227.603 269.427 Z  M 234.923 304.695 L 234.923 304.695 L 234.923 304.695 Z  M 270.492 285.031 L 250.593 285.031 L 250.593 285.031 L 250.593 285.031 L 250.593 288.032 L 250.593 288.032 Q 250.593 295.552 252.619 298.235 L 252.619 298.235 L 252.619 298.235 Q 254.68 300.918 258.02 300.918 L 258.02 300.918 L 258.02 300.918 Q 261.254 300.918 263.03 298.835 L 263.03 298.835 L 263.03 298.835 Q 264.807 296.717 264.913 293.221 L 264.913 293.221 L 264.913 293.221 Q 264.913 292.162 264.985 291.28 L 264.985 291.28 L 270.208 291.28 L 270.208 292.657 L 270.208 292.657 Q 270.208 298.199 267.01 301.977 L 267.01 301.977 L 267.01 301.977 Q 263.847 305.754 257.842 305.754 L 257.842 305.754 L 257.842 305.754 Q 244.659 305.754 244.659 284.643 L 244.659 284.643 L 244.659 284.643 Q 244.659 274.864 248.035 269.215 L 248.035 269.215 L 248.035 269.215 Q 251.411 263.531 257.771 263.531 L 257.771 263.531 L 257.771 263.531 Q 264.629 263.531 267.543 267.944 L 267.543 267.944 L 267.543 267.944 Q 270.492 272.357 270.492 285.031 L 270.492 285.031 L 270.492 285.031 L 270.492 285.031 L 270.492 285.031 Z  M 250.593 280.336 L 250.593 280.336 L 264.558 280.336 L 264.558 280.336 L 264.558 280.336 L 264.558 280.336 L 264.558 280.336 Q 264.558 273.098 262.71 270.733 L 262.71 270.733 L 262.71 270.733 Q 260.898 268.368 258.02 268.368 L 258.02 268.368 L 258.02 268.368 Q 254.005 268.368 252.37 271.157 L 252.37 271.157 L 252.37 271.157 Q 250.736 273.946 250.593 280.336 L 250.593 280.336 Z  M 261.005 304.695 L 261.005 304.695 L 261.005 304.695 Z  M 285.523 304.695 L 279.767 304.695 L 279.767 264.59 L 285.345 264.59 L 285.345 270.874 L 285.345 270.874 Q 288.472 263.531 295.934 263.531 L 295.934 263.531 L 295.934 263.531 Q 296.716 263.531 297.462 263.602 L 297.462 263.602 L 297.462 269.286 L 297.462 269.286 Q 296.716 269.074 295.046 269.074 L 295.046 269.074 L 295.046 269.074 Q 290.533 269.074 288.01 272.039 L 288.01 272.039 L 288.01 272.039 Q 285.523 275.005 285.523 279.912 L 285.523 279.912 L 285.523 304.695 Z  M 283.213 304.695 L 283.213 304.695 L 283.213 304.695 Z  M 45.244 218.332 L 45.67 214.131 L 51.889 214.131 L 51.32 220.592 L 51.32 220.592 Q 50.68 227.052 46.594 231.042 L 46.594 231.042 L 46.594 231.042 Q 42.543 235.031 36.076 235.031 L 36.076 235.031 L 36.076 235.031 Q 27.015 235.031 22.964 228.711 L 22.964 228.711 L 22.964 228.711 Q 18.949 222.357 18.949 210.036 L 18.949 210.036 L 18.949 206.046 L 18.949 206.046 Q 18.949 191.819 23.142 184.9 L 23.142 184.9 L 23.142 184.9 Q 27.335 177.98 36.183 177.98 L 36.183 177.98 L 36.183 177.98 Q 43.289 177.98 47.589 182.428 L 47.589 182.428 L 47.589 182.428 Q 51.889 186.877 51.889 193.937 L 51.889 193.937 L 51.889 195.491 L 51.889 195.491 L 45.67 195.491 L 45.67 195.491 L 45.67 195.491 Q 45.244 183.417 35.827 183.417 L 35.827 183.417 L 35.827 183.417 Q 30.781 183.417 27.974 188.324 L 27.974 188.324 L 27.974 188.324 Q 25.167 193.231 25.167 208.482 L 25.167 208.482 L 25.167 208.482 Q 25.167 218.968 27.69 224.299 L 27.69 224.299 L 27.69 224.299 Q 30.213 229.594 35.756 229.594 L 35.756 229.594 L 35.756 229.594 Q 44.071 229.594 45.244 218.332 L 45.244 218.332 Z  M 36.822 233.619 L 36.822 233.619 L 36.822 233.619 Z  M 60.843 233.619 L 60.843 179.392 L 66.599 179.392 L 66.599 198.103 L 66.599 198.103 Q 70.473 192.455 76.691 192.455 L 76.691 192.455 L 76.691 192.455 Q 81.666 192.455 84.082 195.067 L 84.082 195.067 L 84.082 195.067 Q 86.498 197.68 86.498 202.904 L 86.498 202.904 L 86.498 233.619 L 80.742 233.619 L 80.742 204.528 L 80.742 204.528 Q 80.742 197.291 74.843 197.291 L 74.843 197.291 L 74.843 197.291 Q 70.792 197.291 68.696 199.833 L 68.696 199.833 L 68.696 199.833 Q 66.599 202.375 66.599 205.941 L 66.599 205.941 L 66.599 233.619 L 60.843 233.619 Z  M 100.996 204.317 L 95.773 204.317 L 95.773 202.904 L 95.773 202.904 Q 95.773 192.455 107.783 192.455 L 107.783 192.455 L 107.783 192.455 Q 113.22 192.455 116.027 195.067 L 116.027 195.067 L 116.027 195.067 Q 118.87 197.68 118.87 201.987 L 118.87 201.987 L 118.87 226.876 L 118.87 226.876 Q 118.87 229.453 121.215 229.453 L 121.215 229.453 L 121.215 229.453 Q 121.783 229.453 122.388 229.382 L 122.388 229.382 L 122.388 233.513 L 122.388 233.513 Q 121.357 233.936 119.758 233.936 L 119.758 233.936 L 119.758 233.936 Q 116.631 233.936 115.352 232.595 L 115.352 232.595 L 115.352 232.595 Q 114.108 231.218 114.002 227.864 L 114.002 227.864 L 114.002 227.864 Q 112.722 230.9 110.093 232.807 L 110.093 232.807 L 110.093 232.807 Q 107.499 234.678 104.621 234.678 L 104.621 234.678 L 104.621 234.678 Q 94.174 234.678 94.174 223.133 L 94.174 223.133 L 94.174 223.133 Q 94.174 215.684 100.605 213.037 L 100.605 213.037 L 111.052 208.835 L 111.052 208.835 Q 112.438 208.271 113.007 207.494 L 113.007 207.494 L 113.007 207.494 Q 113.575 206.717 113.575 204.352 L 113.575 204.352 L 113.575 204.352 Q 113.575 199.762 111.905 198.527 L 111.905 198.527 L 111.905 198.527 Q 110.235 197.291 107.072 197.291 L 107.072 197.291 L 107.072 197.291 Q 103.768 197.291 102.382 198.633 L 102.382 198.633 L 102.382 198.633 Q 100.996 199.974 100.996 202.904 L 100.996 202.904 L 100.996 204.317 Z  M 113.113 221.827 L 113.113 211.872 L 113.113 211.872 Q 110.093 213.707 104.052 216.073 L 104.052 216.073 L 104.052 216.073 Q 100.108 217.697 100.108 223.31 L 100.108 223.31 L 100.108 223.31 Q 100.108 229.841 105.864 229.841 L 105.864 229.841 L 105.864 229.841 Q 108.991 229.841 111.052 227.511 L 111.052 227.511 L 111.052 227.511 Q 113.113 225.146 113.113 221.827 L 113.113 221.827 Z  M 117.306 233.619 L 117.306 233.619 L 117.306 233.619 Z  M 127.931 212.083 L 127.931 212.083 L 127.931 212.083 Q 127.931 202.516 131.555 197.503 L 131.555 197.503 L 131.555 197.503 Q 135.215 192.455 142.393 192.455 L 142.393 192.455 L 142.393 192.455 Q 149.322 192.455 152.947 197.574 L 152.947 197.574 L 152.947 197.574 Q 156.607 202.657 156.607 211.907 L 156.607 211.907 L 156.607 211.907 Q 156.607 223.31 153.302 228.994 L 153.302 228.994 L 153.302 228.994 Q 150.033 234.678 142.5 234.678 L 142.5 234.678 L 142.5 234.678 Q 134.753 234.678 131.342 229.453 L 131.342 229.453 L 131.342 229.453 Q 127.931 224.193 127.931 212.083 Z  M 133.865 213.955 L 133.865 213.955 L 133.865 213.955 Q 133.865 222.216 135.855 226.028 L 135.855 226.028 L 135.855 226.028 Q 137.88 229.841 142.286 229.841 L 142.286 229.841 L 142.286 229.841 Q 146.906 229.841 148.789 225.852 L 148.789 225.852 L 148.789 225.852 Q 150.672 221.863 150.672 213.955 L 150.672 213.955 L 150.672 213.955 Q 150.672 205.058 148.718 201.175 L 148.718 201.175 L 148.718 201.175 Q 146.764 197.291 142.251 197.291 L 142.251 197.291 L 142.251 197.291 Q 137.951 197.291 135.89 201.104 L 135.89 201.104 L 135.89 201.104 Q 133.865 204.917 133.865 213.955 Z  M 163.855 221.686 L 163.855 221.686 L 169.328 221.686 L 169.328 221.686 L 169.328 221.686 Q 169.328 225.605 170.678 227.723 L 170.678 227.723 L 170.678 227.723 Q 172.064 229.841 176.186 229.841 L 176.186 229.841 L 176.186 229.841 Q 183.932 229.841 183.932 223.133 L 183.932 223.133 L 183.932 223.133 Q 183.932 220.45 182.191 218.968 L 182.191 218.968 L 182.191 218.968 Q 180.485 217.45 176.079 215.896 L 176.079 215.896 L 176.079 215.896 Q 168.439 213.248 166.236 210.601 L 166.236 210.601 L 166.236 210.601 Q 164.033 207.953 164.033 203.964 L 164.033 203.964 L 164.033 203.964 Q 164.033 198.315 167.444 195.385 L 167.444 195.385 L 167.444 195.385 Q 170.856 192.455 176.044 192.455 L 176.044 192.455 L 176.044 192.455 Q 188.445 192.455 188.445 204.317 L 188.445 204.317 L 188.445 204.317 L 182.973 204.317 L 182.973 204.317 L 182.973 204.317 Q 182.973 200.857 181.658 199.092 L 181.658 199.092 L 181.658 199.092 Q 180.343 197.291 176.505 197.291 L 176.505 197.291 L 176.505 197.291 Q 169.967 197.291 169.967 203.434 L 169.967 203.434 L 169.967 203.434 Q 169.967 205.729 171.46 207.317 L 171.46 207.317 L 171.46 207.317 Q 172.988 208.906 178.815 211.13 L 178.815 211.13 L 178.815 211.13 Q 185.638 213.743 187.734 216.143 L 187.734 216.143 L 187.734 216.143 Q 189.866 218.544 189.866 222.357 L 189.866 222.357 L 189.866 222.357 Q 189.866 228.358 185.993 231.536 L 185.993 231.536 L 185.993 231.536 Q 182.155 234.678 176.363 234.678 L 176.363 234.678 L 176.363 234.678 Q 170.571 234.678 167.196 231.677 L 167.196 231.677 L 167.196 231.677 Q 163.855 228.641 163.855 223.698 L 163.855 223.698 L 163.855 221.686 Z  M 176.541 233.619 L 176.541 233.619 L 176.541 233.619 Z " fill="rgb(0,0,0)"/></g></svg>