<svg id="Logo_CMYK" xmlns="http://www.w3.org/2000/svg" viewBox="0 0 613.01 43.77"><defs><style>.cls-1{fill:#009fe3;}</style></defs><path class="cls-1" d="M305.18,33.21a5.73,5.73,0,0,1-5.85-5.49,5.84,5.84,0,0,1,11.67,0v5.49Z" transform="translate(-21.97 -13.26)"/><path class="cls-1" d="M311,13.73H291.51V33.22h6.56a8.34,8.34,0,0,1-2.1-5.49,9,9,0,0,1,9.21-8.88A9.55,9.55,0,0,1,311,20.8Z" transform="translate(-21.97 -13.26)"/><path class="cls-1" d="M320.34,33.21a5.56,5.56,0,1,0-5.8-5.49v5.49Z" transform="translate(-21.97 -13.26)"/><path class="cls-1" d="M314.51,13.73H334V33.22h-6.52a8.5,8.5,0,0,0,2-5.49,9,9,0,0,0-9.19-8.88,9.57,9.57,0,0,0-5.82,1.95Z" transform="translate(-21.97 -13.26)"/><rect class="cls-1" x="269.54" y="23.5" width="19.49" height="19.49"/><rect class="cls-1" x="292.54" y="23.5" width="19.49" height="19.49"/><path class="cls-1" d="M251,37.32c.53-3.34,2.5-5.19,6.07-5.19a5.08,5.08,0,0,1,5.18,5.19Zm22.57,6.13c0-12.09-5.3-18.88-17.57-18.88-9.83,0-16.32,7.33-16.32,16.32C239.63,51.19,247.08,57,257,57c7,0,13.52-3.1,15.9-9.77h-11c-.95,1.49-3,2.2-4.94,2.2-3.75,0-5.72-2.44-6-6ZM224.8,56.25h11.79V25.34H224.8Zm11.79-42.52H224.8V22h11.79ZM187.94,56.25h11.79V39.94c0-4.95,2.62-6,4.71-6,3.45,0,3.87,2.5,3.87,6.07v16.2H220.1V35.05c0-7.08-5.06-10.48-10.6-10.48-4.77,0-7.86,1.61-10.07,4.71h-.11V25.35H187.94Zm-3.63-15.48c0-8.52-5.24-16.2-16.85-16.2s-16.86,7.68-16.86,16.2S155.84,57,167.46,57s16.85-7.69,16.85-16.26m-11.79,0c0,3.27-.54,7.68-5.06,7.68s-5.07-4.41-5.07-7.68.54-7.62,5.07-7.62,5.06,4.34,5.06,7.62M117.85,56.25h11.79V47.32l2.08-2.26L138,56.25h14.17L139.47,37l11-11.67H137.14l-7.5,8.93V13.73H117.85Zm-16-11c-.18,3.27-2.26,4.82-4.94,4.82-2.15,0-3.7-1.43-3.7-2.86,0-2.08,1.37-2.68,4-3.33a24.06,24.06,0,0,0,4.65-1.49Zm11.31-8.58c0-6,.12-12.09-14.65-12.09-7.26,0-15.6,1.37-15.9,10.12h11c0-1.31.84-3.15,4.41-3.15,1.9,0,3.87.77,3.87,2.86s-1.61,2.44-3.22,2.74c-6,1.19-17.44.71-17.44,10.54,0,6.49,4.94,9.35,10.89,9.35,3.81,0,7.39-.84,10-3.7h.12a8.39,8.39,0,0,0,.41,2.92h12c-1.37-2-1.43-4.58-1.43-6.91ZM66,56.25H77.77V25.34H66ZM77.77,13.73H66V22H77.77ZM22,56.25H40.91c14.83,0,21.74-8.22,21.74-21.32,0-10.72-5.07-21.2-19.18-21.2H22Zm13.1-31.62h4.17c9.53,0,10.3,7.44,10.3,10.12,0,4-1.25,10.6-9.35,10.6H35.07Z" transform="translate(-21.97 -13.26)"/><path class="cls-1" d="M623.19,56.25h5.06V29.93h6V25.46h-6V21.18c0-2.68,1.43-3.46,3.87-3.46a9.39,9.39,0,0,1,2.86.42V13.73a12.31,12.31,0,0,0-3.27-.47c-5.54,0-8.52,2.62-8.52,7.62v4.58H618v4.47h5.18Zm-24.18,0h5.07V42.56c0-7.87,3-12.45,11.13-12.45V24.75c-5.48-.18-8.87,2.2-11.31,7.21h-.12v-6.5H599ZM563.64,40.89c0,9,5.18,16.08,15,16.08s14.94-7.09,14.94-16.08-5.18-16.14-14.94-16.14-15,7.09-15,16.14m5.36,0c0-7.45,4.29-11.67,9.59-11.67s9.59,4.22,9.59,11.67-4.29,11.61-9.59,11.61S569,48.33,569,40.89M558.1,13.73H553V29.57h-.12c-2.2-3.63-6.85-4.82-9.94-4.82-9.41,0-14.06,7.32-14.06,16S533.63,57,543.09,57c4.29,0,8.16-1.49,9.83-4.89H553v4.17h5.06Zm-23.82,27.4c0-6,2.32-11.91,9.23-11.91s9.71,5.65,9.71,11.67c0,5.72-2.56,11.61-9.41,11.61-6.55,0-9.53-5.6-9.53-11.37M518,56.25H523V13.73H518Zm-11-9.76c-.89,4-3.75,6-8,6-6.73,0-9.77-4.76-9.59-10.12h23c.3-7.45-3-17.63-13.94-17.63-8.39,0-14.47,6.73-14.47,16,.3,9.35,4.94,16.2,14.77,16.2,7,0,11.79-3.64,13.16-10.48Zm-17.57-8.58c.3-4.76,3.57-8.69,8.82-8.69,5.06,0,8.57,3.87,8.87,8.69Zm-35.13,8.64c.29,7.62,6.13,10.42,13,10.42,6.25,0,13.1-2.33,13.1-9.71,0-5.9-5-7.62-10.07-8.75-4.7-1.08-10.06-1.79-10.06-5.36,0-3.1,3.51-3.93,6.55-3.93,3.28,0,6.85,1.25,7.15,5.18H479c-.48-7.51-5.72-9.65-12.63-9.65-5.42,0-11.49,2.56-11.49,8.75C454.9,45.35,475,40,475,47.92c0,3.87-4.29,4.58-7.45,4.58-4.1,0-8.09-1.43-8.27-6Zm-29.48,0c.29,7.62,6.13,10.42,13,10.42,6.25,0,13.1-2.33,13.1-9.71,0-5.9-5-7.62-10.06-8.75-4.71-1.08-10.07-1.79-10.07-5.36,0-3.1,3.52-3.93,6.55-3.93,3.28,0,6.85,1.25,7.15,5.18h5.06c-.48-7.51-5.72-9.65-12.62-9.65-5.42,0-11.5,2.56-11.5,8.75,0,11.85,20.13,6.49,20.13,14.42,0,3.87-4.29,4.58-7.44,4.58-4.11,0-8.1-1.43-8.28-6ZM409.82,20.4h5.36V14.21h-5.36Zm-11.2,0H404V14.21h-5.36Zm21.08,5.06h-5.06V42.85c0,5.54-3,9.65-9.11,9.65-3.87,0-6.25-2.38-6.25-6.19V25.46h-5.06V45.71c0,6.61,2.5,11.26,10.6,11.26,4.46,0,7.86-1.79,10-5.6h.12v4.88h4.76ZM353.54,56.25h14.59c14.18,0,20.43-8,20.43-22.27,0-13.64-7.33-20.25-20.43-20.25H353.54ZM359.2,18.5h9.53c10.42,0,14.17,6.13,14.17,16.25,0,15.67-10.42,16.74-14.29,16.74H359.2Z" transform="translate(-21.97 -13.26)"/></svg>