<?xml version="1.0" encoding="UTF-8" standalone="no"?><!-- Generator: Gravit.io --><svg xmlns="http://www.w3.org/2000/svg" xmlns:xlink="http://www.w3.org/1999/xlink" style="isolation:isolate" viewBox="0 0 400 200" width="400pt" height="200pt"><defs><clipPath id="_clipPath_0mEw88R63ei8TfrArvQgurtEkBSBbyER"><rect width="400" height="200"/></clipPath></defs><g clip-path="url(#_clipPath_0mEw88R63ei8TfrArvQgurtEkBSBbyER)"><g><path d=" M 354.801 60.708 C 351.005 60.791 347.84 57.821 347.682 54.026 C 347.839 50.219 350.972 47.213 354.783 47.213 C 358.594 47.213 361.727 50.219 361.884 54.026 L 361.884 60.708 L 354.801 60.708 Z " fill="rgb(0,159,227)"/><path d=" M 361.884 37 L 338.164 37 L 338.164 60.72 L 346.148 60.72 C 344.514 58.877 343.605 56.502 343.592 54.039 C 343.63 51.114 344.837 48.326 346.942 46.296 C 349.048 44.266 351.877 43.163 354.801 43.231 C 357.359 43.221 359.849 44.056 361.884 45.604 L 361.884 37 Z " fill="rgb(0,159,227)"/><path d=" M 373.252 60.708 C 376.957 60.548 379.843 57.434 379.722 53.726 C 379.601 50.019 376.517 47.1 372.809 47.182 C 369.1 47.265 366.149 50.317 366.193 54.026 L 366.193 60.708 L 373.252 60.708 Z " fill="rgb(0,159,227)"/><path d=" M 366.156 37 L 389.876 37 L 389.876 60.72 L 381.941 60.72 C 383.517 58.851 384.379 56.483 384.375 54.039 C 384.337 51.118 383.134 48.335 381.034 46.305 C 378.934 44.276 376.11 43.169 373.191 43.231 C 370.633 43.223 368.144 44.057 366.108 45.604 L 366.156 37 Z " fill="rgb(0,159,227)"/><rect x="338.164" y="65.028" width="23.72" height="23.72" transform="matrix(1,0,0,1,0,0)" fill="rgb(0,159,227)"/><rect x="366.156" y="65.028" width="23.72" height="23.72" transform="matrix(1,0,0,1,0,0)" fill="rgb(0,159,227)"/><path d=" M 288.862 65.71 C 289.507 61.645 291.905 59.394 296.249 59.394 C 297.934 59.36 299.559 60.015 300.749 61.207 C 301.939 62.4 302.591 64.026 302.554 65.71 L 288.862 65.71 Z  M 316.331 73.17 C 316.331 58.456 309.88 50.193 294.947 50.193 C 282.984 50.193 275.085 59.114 275.085 70.055 C 275.024 82.59 284.091 89.661 296.164 89.661 C 304.684 89.661 312.619 85.888 315.515 77.771 L 302.128 77.771 C 300.972 79.584 298.477 80.448 296.116 80.448 C 291.552 80.448 289.154 77.479 288.813 73.146 L 316.331 73.17 Z  M 256.976 88.748 L 271.325 88.748 L 271.325 51.13 L 256.976 51.13 L 256.976 88.748 Z  M 271.325 37 L 256.976 37 L 256.976 47.065 L 271.325 47.065 L 271.325 37 Z  M 212.116 88.748 L 226.465 88.748 L 226.465 68.899 C 226.465 62.874 229.653 61.596 232.197 61.596 C 236.396 61.596 236.907 64.639 236.907 68.984 L 236.907 88.7 L 251.256 88.7 L 251.256 62.947 C 251.256 54.331 245.097 50.193 238.355 50.193 C 232.55 50.193 228.789 52.152 226.099 55.925 L 225.966 55.925 L 225.966 51.142 L 212.116 51.142 L 212.116 88.748 Z  M 207.698 69.909 C 207.698 59.54 201.32 50.193 187.191 50.193 C 173.061 50.193 166.671 59.54 166.671 69.909 C 166.671 80.278 173.049 89.661 187.191 89.661 C 201.333 89.661 207.698 80.302 207.698 69.872 M 193.349 69.872 C 193.349 73.852 192.692 79.219 187.191 79.219 C 181.69 79.219 181.02 73.852 181.02 69.872 C 181.02 65.892 181.677 60.598 187.191 60.598 C 192.704 60.598 193.349 65.88 193.349 69.872 Z  M 126.813 88.748 L 141.162 88.748 L 141.162 77.88 L 143.694 75.13 L 151.337 88.748 L 168.582 88.748 L 153.126 65.32 L 166.513 51.118 L 150.29 51.118 L 141.162 61.986 L 141.162 37 L 126.813 37 L 126.813 88.748 Z  M 107.341 75.361 C 107.122 79.341 104.59 81.227 101.329 81.227 C 98.712 81.227 96.826 79.487 96.826 77.746 C 96.826 75.215 98.493 74.485 101.694 73.694 C 103.637 73.283 105.533 72.675 107.353 71.88 L 107.341 75.361 Z  M 121.105 64.919 C 121.105 57.617 121.252 50.205 103.276 50.205 C 94.44 50.205 84.29 51.872 83.925 62.521 L 97.312 62.521 C 97.312 60.927 98.335 58.688 102.68 58.688 C 104.992 58.688 107.389 59.625 107.389 62.168 C 107.389 64.712 105.43 65.138 103.471 65.503 C 96.168 66.951 82.245 66.367 82.245 78.331 C 82.245 86.229 88.258 89.71 95.499 89.71 C 100.136 89.71 104.493 88.688 107.669 85.207 L 107.815 85.207 C 107.771 86.412 107.94 87.615 108.314 88.761 L 122.919 88.761 C 121.252 86.327 121.178 83.187 121.178 80.351 L 121.105 64.919 Z  M 63.71 88.748 L 78.034 88.748 L 78.034 51.13 L 63.71 51.13 L 63.71 88.748 Z  M 78.034 37 L 63.71 37 L 63.71 47.065 L 78.034 47.065 L 78.034 37 Z  M 10.16 88.748 L 33.174 88.748 C 51.223 88.748 59.633 78.744 59.633 62.801 C 59.633 49.755 53.462 37 36.29 37 L 10.16 37 L 10.16 88.748 Z  M 26.103 50.266 L 31.178 50.266 C 42.777 50.266 43.714 59.32 43.714 62.582 C 43.714 67.45 42.193 75.483 32.335 75.483 L 26.067 75.483 L 26.103 50.266 Z " fill="rgb(0,159,227)"/><path d=" M 349.798 162.055 L 356.172 162.055 L 356.172 128.9 L 363.73 128.9 L 363.73 123.269 L 356.172 123.269 L 356.172 117.878 C 356.172 114.502 357.974 113.52 361.047 113.52 C 362.268 113.509 363.483 113.687 364.65 114.049 L 364.65 108.493 C 363.31 108.112 361.924 107.913 360.531 107.901 C 353.552 107.901 349.798 111.202 349.798 117.5 L 349.798 123.269 L 343.26 123.269 L 343.26 128.9 L 349.786 128.9 L 349.798 162.055 Z  M 319.339 162.055 L 325.726 162.055 L 325.726 144.81 C 325.726 134.896 329.505 129.127 339.746 129.127 L 339.746 122.375 C 332.843 122.148 328.572 125.146 325.499 131.457 L 325.348 131.457 L 325.348 123.269 L 319.326 123.269 L 319.339 162.055 Z  M 274.784 142.706 C 274.784 154.044 281.309 162.962 293.679 162.962 C 306.049 162.962 312.499 154.031 312.499 142.706 C 312.499 131.382 305.974 122.375 293.679 122.375 C 281.385 122.375 274.784 131.306 274.784 142.706 Z  M 281.536 142.706 C 281.536 133.322 286.94 128.006 293.616 128.006 C 300.293 128.006 305.697 133.322 305.697 142.706 C 305.697 152.091 300.293 157.331 293.616 157.331 C 286.94 157.331 281.536 152.079 281.536 142.706 Z  M 267.805 108.493 L 261.381 108.493 L 261.381 128.447 L 261.23 128.447 C 258.458 123.874 252.601 122.375 248.708 122.375 C 236.855 122.375 230.997 131.596 230.997 142.53 C 230.997 153.464 236.981 163 248.897 163 C 254.301 163 259.176 161.123 261.28 156.84 L 261.381 156.84 L 261.381 162.093 L 267.755 162.093 L 267.805 108.493 Z  M 237.799 143.009 C 237.799 135.451 240.722 128.006 249.426 128.006 C 258.131 128.006 261.658 135.123 261.658 142.706 C 261.658 149.912 258.433 157.331 249.804 157.331 C 241.553 157.331 237.799 150.277 237.799 143.009 M 217.292 162.055 L 223.59 162.055 L 223.59 108.493 L 217.292 108.493 L 217.292 162.055 Z  M 203.435 149.761 C 202.314 154.799 198.711 157.319 193.358 157.319 C 184.88 157.319 181.051 151.323 181.277 144.571 L 210.25 144.571 C 210.628 135.186 206.471 122.363 192.69 122.363 C 182.121 122.363 174.462 130.84 174.462 142.517 C 174.84 154.296 180.685 162.924 193.068 162.924 C 201.886 162.924 207.92 158.339 209.645 149.723 L 203.435 149.761 Z  M 181.303 138.953 C 181.68 132.956 185.8 128.006 192.413 128.006 C 198.787 128.006 203.208 132.881 203.586 138.953 L 181.303 138.953 Z  M 137.05 149.836 C 137.415 159.435 144.772 162.962 153.426 162.962 C 161.299 162.962 169.928 160.027 169.928 150.731 C 169.928 143.299 163.629 141.132 157.243 139.708 C 151.322 138.348 144.57 137.454 144.57 132.956 C 144.57 129.051 148.992 128.006 152.821 128.006 C 156.953 128.006 161.45 129.581 161.828 134.531 L 168.164 134.531 C 167.559 125.071 160.959 122.375 152.254 122.375 C 145.427 122.375 137.78 125.6 137.78 133.397 C 137.806 148.325 163.125 141.585 163.125 151.562 C 163.125 156.437 157.721 157.331 153.741 157.331 C 148.576 157.331 143.55 155.53 143.323 149.773 L 137.05 149.836 Z  M 99.914 149.836 C 100.279 159.435 107.636 162.962 116.29 162.962 C 124.163 162.962 132.792 160.027 132.792 150.731 C 132.792 143.299 126.494 141.132 120.12 139.708 C 114.186 138.348 107.435 137.454 107.435 132.956 C 107.435 129.051 111.869 128.006 115.685 128.006 C 119.817 128.006 124.314 129.581 124.692 134.531 L 131.066 134.531 C 130.462 125.071 123.861 122.375 115.169 122.375 C 108.341 122.375 100.683 125.6 100.683 133.397 C 100.683 148.325 126.04 141.573 126.04 151.562 C 126.04 156.437 120.636 157.331 116.668 157.331 C 111.491 157.331 106.465 155.53 106.238 149.773 L 99.914 149.836 Z  M 81.019 116.895 L 87.771 116.895 L 87.771 109.098 L 81.019 109.098 L 81.019 116.895 Z  M 66.91 116.895 L 73.688 116.895 L 73.688 109.098 L 66.936 109.098 L 66.91 116.895 Z  M 93.465 123.269 L 87.091 123.269 L 87.091 145.175 C 87.091 152.154 83.312 157.331 75.615 157.331 C 70.74 157.331 67.742 154.333 67.742 149.534 L 67.742 123.269 L 61.368 123.269 L 61.368 148.778 C 61.368 157.105 64.517 162.962 74.72 162.962 C 80.339 162.962 84.622 160.707 87.317 155.908 L 87.468 155.908 L 87.468 162.055 L 93.465 162.055 L 93.465 123.269 Z  M 10.124 162.055 L 28.503 162.055 C 46.365 162.055 54.238 151.978 54.238 134.002 C 54.238 116.82 45.004 108.493 28.503 108.493 L 10.124 108.493 L 10.124 162.055 Z  M 17.254 114.502 L 29.258 114.502 C 42.384 114.502 47.108 122.224 47.108 134.972 C 47.108 154.711 33.982 156.059 29.107 156.059 L 17.254 156.059 L 17.254 114.502 Z " fill="rgb(0,159,227)"/></g></g></svg>