<?xml version="1.0" encoding="UTF-8" standalone="no"?><!-- Generator: Gravit.io --><svg xmlns="http://www.w3.org/2000/svg" xmlns:xlink="http://www.w3.org/1999/xlink" style="isolation:isolate" viewBox="0 0 255 255" width="255pt" height="255pt"><defs><clipPath id="_clipPath_vAo91p7huDp6b6tmTkDYZLzCN7x4UbKe"><rect width="255" height="255"/></clipPath></defs><g clip-path="url(#_clipPath_vAo91p7huDp6b6tmTkDYZLzCN7x4UbKe)"><path d=" M 26.569 148.817 C 26.569 122.761 47.317 101.606 72.872 101.606 C 98.427 101.606 119.175 122.761 119.175 148.817 C 119.175 174.874 98.427 196.029 72.872 196.029 C 47.317 196.029 26.569 174.874 26.569 148.817 Z " fill="none" vector-effect="non-scaling-stroke" stroke-width="2.434" stroke="rgb(222,44,104)" stroke-linejoin="miter" stroke-linecap="butt" stroke-miterlimit="4"/><path d=" M 105.313 124.961 C 105.313 96.916 127.703 74.147 155.282 74.147 C 182.86 74.147 205.25 96.916 205.25 124.961 C 205.25 153.006 182.86 175.775 155.282 175.775 C 127.703 175.775 105.313 153.006 105.313 124.961 Z " fill="none" vector-effect="non-scaling-stroke" stroke-width="2.433" stroke="rgb(222,44,104)" stroke-linejoin="miter" stroke-linecap="butt" stroke-miterlimit="4"/><path d=" M 89.688 125.004 C 89.688 88.56 118.98 58.971 155.059 58.971 C 191.139 58.971 220.431 88.56 220.431 125.004 C 220.431 161.448 191.139 191.036 155.059 191.036 C 118.98 191.036 89.688 161.448 89.688 125.004 Z " fill="none" vector-effect="non-scaling-stroke" stroke-width="13.168" stroke="rgb(222,44,104)" stroke-linejoin="miter" stroke-linecap="butt" stroke-miterlimit="4"/><path d=" M 61.685 126.045 L 51.365 126.045 L 59.62 133.87 L 43.109 133.87 L 43.109 141.694 L 59.62 141.694 L 51.365 149.519 L 61.685 149.519 L 74.068 137.781 L 61.685 126.045 Z " fill="rgb(255,204,51)"/><path d=" M 168.889 157.917 L 155.937 144.511 L 183.999 144.511 L 183.999 131.106 L 155.937 131.106 L 168.889 117.7 L 151.619 117.7 L 132.19 137.807 L 151.619 157.914 L 168.889 157.917 Z " fill="rgb(255,204,51)"/></g></svg>